<svg xmlns="http://www.w3.org/2000/svg" viewBox="0 0 820 820"><defs><style>.cls-1{fill:#f4f6f9;}.cls-2{fill:#feaabc;}.cls-3{fill:none;stroke:#333;stroke-linecap:round;stroke-linejoin:round;stroke-width:7px;}.cls-4{fill:#333;}.cls-5{fill:#ffe945;}</style></defs><g id="CHARACTERS"><g id="Create"><g id="BG"><path class="cls-1" d="M187,421.33c-.45-28.69-2-55.58,0-84.26,1.53-22.56,6.94-58.93,15.28-61.42,0,0,1.12-14.28,2.43-27.89-26.56-2-53.11-4.39-79.63-6.73-5.5-.49-10.09,4.25-10.49,9.48-4.92,65.4-6.31,132.69,11.73,196.37,11.33,40,30.13,78.23,57.68,109.33C188.51,510.46,187.71,467.28,187,421.33Z"/><path class="cls-1" d="M270.54,273.15c11.55,2.21,16.88,24.73,17.72,46.09,1.22,31.22,9.86,84.21,14,115.45C308.18,479.28,322.94,523.61,331,568c.16.89.33,1.79.49,2.71,8.16-10.66,20-21.11,23.15-33.35,4.74-18.42,25.33-99.52,25.33-99.52l-36.8,4.08c10.26-13.44,36.11-46,44-54.76,6.76-7.56,14.13-15,22.68-20.12l-1-.38c-5-2.07-11.5-4.56-13.18-10.22-.76-2.56.73-5.32,3.7-5,4.43.43,9.17.83,13.49-.53s6.47-4.69,9.48-7.67a36.81,36.81,0,0,1,24-10.24c7.82-.16,16.23,3.69,19.32,11.28a15.21,15.21,0,0,1,.82,8.75,19.17,19.17,0,0,1,10.65,2.35c9,5,12.93,15.24,13.84,25a99.6,99.6,0,0,1,.33,13.61c12.19-.54,23.29,3.48,24.61,16.69,1.46,14.59-15.28,17.72-31.15,18.52h0c-1.93,5.84-4.6,11.45-8.89,15.49,0-.15,0-.29,0-.44h0c.77,13.66,1.82,33.48,2.07,44.67.47,20.85,1.52,58.75,4.45,68.94,2.45,8.53,10.7,20.47,17.68,34.6,10.25-20.11,26.57-48,37.06-77.07,18.26-50.73,33.86-102.59,28.63-157-2.49-25.82-10.9-75.51,8.19-91.93.52-4.62.58-15.23.59-24.94-68.46,4.65-136.79,11.76-205.44,12.74-33.32.47-66.6-.46-99.85-2.2C270.18,263.22,270.54,273.15,270.54,273.15Z"/><path class="cls-1" d="M751.08,247.53c-.46-4.36-5.3-7.52-9.27-7.81-34.94-2.58-70-2.73-105-1.54.68,8.26,1.17,15.14,1.17,15.14,12.32,1.06,27.48,32.3,16.2,51.59,12.22.87,11,25.69,9.55,33.45-1.52,8.29-8.3,14.66-8.27,22.29,0,9.63,6.52,20.2,7.87,30.13,2.81,20.67,4.69,41.32,4,62.25-1.15,35.94-5,71-10.69,106.5,30.63-35.94,50.2-80,63.53-125.24,8.65-29.38,15-59.38,21.26-89.34C748.22,312.76,754.53,280.55,751.08,247.53Z"/></g><g id="Character"><path class="cls-2" d="M771.43,135.31c-.26-3.94-1.41-13.54-6.46-17.51-8.67-6.8-29-8.62-37.41-8.43a3.5,3.5,0,0,0,.08,7l0,40.08h-.25a3.5,3.5,0,0,0,.24,7h.25l2.81-.19c11-.69,29.32-1.86,36.53-9.23C772,149.21,771.64,138.48,771.43,135.31Z"/><path class="cls-3" d="M628.83,92.19c3.66-8.76,31.3-8,22.32,5.56"/><path class="cls-3" d="M635,167.8c-.29,11.4-9.4,14.58-13.77,17.47"/><path class="cls-4" d="M87.82,133.07c-.58-3.61.46-8.35-2.18-8.95-1.15-1.42-24.49,8.51-27.42,9.6-3.32,1.24-5.26,5.93-1,6.71,6.75,1.24,17.5,2.48,24.25,3.72,2,.38,4.42-.54,4.92-2.79C86.67,140.13,88.09,134.67,87.82,133.07Z"/><path class="cls-5" d="M235.61,124c-9.66-1.48-23.29-3.23-27.29-13.89-1-2.79-.49-6.31-2.77-8.44,1.67-.09,2.92-.15,3.58-.17a3.5,3.5,0,0,0-.24-7c-2.42.09-11.5.58-23,1.21-18.54,1-41.6,2.29-46.29,2.33a3.5,3.5,0,0,0-1.6,6.59A10.77,10.77,0,0,1,144.1,116c-.53,5-3.31,8.33-4.33,8.61a3.5,3.5,0,0,0,1.19,6.89,5.28,5.28,0,0,1,5,1.72c2,2.32,2.69,6.8,1.66,10.65-1.25,4.69-6.32,8.74-10,11.7-1.14.91-2.22,1.77-3.1,2.58a3.5,3.5,0,0,0,2.14,6.08c.5,0,50.29,3.13,84.61,3.78h.06a3.5,3.5,0,0,0,.07-7H221c.24-.1.49-.17.72-.29,3.33-1.62,3.46-4.8,5-7.76,4.31-8.53,15.59-9.57,23.94-10.37,2-.19,4.18-1.68,4-4C253.76,128.21,244.44,125.31,235.61,124Z"/><path class="cls-5" d="M568.13,101l2,.06h.11a3.5,3.5,0,0,0,.1-7c-57.77-1.76-194.74-1.91-286.42-1a3.5,3.5,0,0,0,0,7h.12c-7,3.9-12.58,10.18-14,18.39a4.37,4.37,0,0,0,5.46,4.86,58.48,58.48,0,0,1,16.37,33.73,4.9,4.9,0,0,0,.27,1c-.1.2-.19.4-.3.6a3.77,3.77,0,0,0-.36,3l-2.3-.06a3.5,3.5,0,0,0-.18,7q12,.3,24,.68c27.16.8,55.24,1.64,83,1.21,30.71-.47,108.69.05,171.36.46h0a3.5,3.5,0,0,0,0-7h-1.18a4.13,4.13,0,0,0,.17-2.18c-.69-3.84,2.51-6.81,5.05-9.2,3.36-3.16,7-6,9.94-9.59,6.53-8.14,5.08-18.46,1.24-27.57A26.37,26.37,0,0,0,568.13,101Z"/><path class="cls-5" d="M676.64,107.75a3.86,3.86,0,0,0-2.26-4.56,3.38,3.38,0,0,0,.28-1.31,3.5,3.5,0,0,0-3.44-3.56c-4.35-.07-12.42-.42-20.23-.76-6.91-.31-13.44-.59-17.26-.68a3.5,3.5,0,0,0-.16,7l3,.09a3,3,0,0,0-.48,1.73,4.5,4.5,0,0,0,1.15,3.66c2.66,7.32,8.74,26.46,1.64,26.67a5.15,5.15,0,0,1-6,.18c-4.37.93-7.51,3.71-10.47,6.91-4.05,4.39-8,7.71-13.83,9.5a4.06,4.06,0,0,0-2.39,5.88,14.92,14.92,0,0,0,5.07,5.81H611a3.5,3.5,0,0,0,0,7c21.63.13,36.54.19,46.16.19,7.39,0,11.66,0,13.43-.11a3.49,3.49,0,0,0,.64-6.89c4.5-5.37,5.06-14.74,5.92-21.25A127.54,127.54,0,0,0,676.64,107.75Z"/><line class="cls-3" x1="421.36" y1="397.24" x2="420.85" y2="401.71"/><line class="cls-3" x1="437.36" y1="399.96" x2="436.85" y2="404.43"/><path class="cls-3" d="M392.32,437.43c5.87,1,12.31,3.42,18.51,3,7.64-.48,13.94-5.17,21-7.85,9.59-3.63,23.46-2.67,26.15,9.52,6.66,30.15-39.5,36.55-57.27,26.88C394.11,465.42,382.83,438.69,392.32,437.43Z"/><path class="cls-3" d="M453.81,434.72c-1.35,4.31-2.72,8.52-3.9,13a68.13,68.13,0,0,1,7,8.52"/><path class="cls-3" d="M397.58,438.94c3.33,3.56,3.74,11.5,4.74,14.13-.68,2.87-5.53,8.8-5.49,8.43"/><path class="cls-3" d="M354.67,537.36c31.05,19.13,93,27.23,126.06,10.08"/><path class="cls-3" d="M355.81,559.24c2.75,14.86,13.28,37.13,26,46.26,14.49,10.44,50.14-13.76,47.47-28.78-2.88,10.57,1.8,25.56,10.26,32.52C458.68,625,471.23,578.2,471,565c-1.22-1.39-.17.56-.81.94"/><path class="cls-3" d="M425.44,604.31c-3.63,7.58-.57,28.15-2.42,36-5.5,23.28-19.19,35.77-25.82,57.87-4.44,14.8,9,8.31,20.19,11.23,19,4.94-7.68,20.16-3.91,26.75s13.91,6,16.91,11.92"/><path class="cls-3" d="M641,681.38c1.55-14.07.53-28.82,2.21-43.29,2.91-25,8.68-49.18,12.75-73.94,6.1-37,10.24-73.61,11.44-111.12.67-20.93-1.21-41.58-4-62.25-1.35-9.93-7.84-20.5-7.87-30.13,0-7.63,6.75-14,8.27-22.29,1.43-7.76,2.67-32.58-9.55-33.45,11.28-19.29-3.88-50.53-16.2-51.59s-54.56,5-64,13.1c-19.09,16.42-10.68,66.11-8.19,91.93,5.23,54.43-10.37,106.29-28.63,157-16,44.59-45.8,86.19-46.46,101.61-.38,8.65-1.57,25.56,8.44,25.73,17.57.29,7.84-34.59,4.84-41.81-7.42-17.84-18.64-32.87-21.56-43.06s-4-48.09-4.45-68.94c-.41-18.25-2.94-59.44-2.94-59.44,17.74-.26,42.67-1.13,40.9-18.8-2-19.68-25.62-19-42.27-13.17l-2.33-9.37C467,366.62,453,359.5,432.1,360.17c-19.05.62-33,13.58-44.94,27-7.85,8.78-33.7,41.32-44,54.76L380,437.84s-20.59,81.1-25.33,99.52-29.21,32.79-31.09,49.93c-1,8.82,3.08,12.29,7.07,3.72,3.36-7.22,1.73-15.59.38-23-8.09-44.39-22.85-88.72-28.77-133.31-4.14-31.24-12.78-84.23-14-115.45-.84-21.36-6.17-43.88-17.72-46.09-19.51-3.73-50.73-2.75-68.31,2.5-8.34,2.49-13.75,38.86-15.28,61.42-1.94,28.68-.42,55.57,0,84.26.74,46.47,1.56,90.1-3.18,136.43-2.4,23.49.19,46.21-2.47,69.54"/><path class="cls-3" d="M574,266.42c1-8.94.3-40.27.79-44.15s18.75-6.19,28.31-8.56,29.35-6.68,30.71-3.15,4.2,42.76,4.2,42.76"/><path class="cls-3" d="M270.54,273.15s-1.19-33-4.67-46.54c-17.81-5.4-40.35-1.17-58.82.49-1.93,11.67-4.82,48.55-4.82,48.55"/><path class="cls-3" d="M577.37,219.93c-3.2-19.18-16.16-43.45-7.06-62.91,5.58-11.93,36.48-35.12,48.32-20.33,9.27,11.58-12.26,18.6-19.13,19.52,10.55,5.77,13.78,12.44,11,20"/><path class="cls-3" d="M224.13,168.19c-2.57-23.69,31.75-28.77,40.12-18-8.05-4.82-19.41-25.37-7.38-31.67,11.6-6.08,20.47,10.82,25.82,18.11,6.89,9.39,9,17,6.43,29C286.2,179,276,177.94,270,188.61c-3.28,5.84-7.9,25.64-6.74,37.29"/><path class="cls-3" d="M588.68,137.16c1.64-10.91-9-34.22-18.44-39.6"/><path class="cls-3" d="M557.86,95.41c4.49-12.22,24.51-15.76,30.29-1.22,3.56-11.16,17.9-6.25,21.3,1.74,10.32-15.14,27.63,5.22,30.16,15.65,2.46,10.12,7.75,35.71-11,22.55-.3,3.61-3.83,7.13-7.47,6.72"/><path class="cls-3" d="M627.48,182.72c1.93,6.13,2.91,26.51,2.91,26.51"/><path class="cls-3" d="M205.69,166.1c-2.41,9.27,5.23,22.68,15.66,21.71"/><path class="cls-3" d="M210.91,223.78c1.14-9.53-.62-26.36,3.75-36.27"/><path class="cls-3" d="M237.25,191.43a5.74,5.74,0,0,1,6.56-2"/><path class="cls-3" d="M601.85,196.65a18.67,18.67,0,0,0,6.46-1.07"/><path class="cls-3" d="M285.52,93.62c-3,5.32-13.3,24.17-17.33,24.91"/><path class="cls-3" d="M251.7,129.08c-5.6.67-15.28.48-15.71-6.29-5.2,3.85-14.89,3.71-13.12-5.48-29,7.58-9.12-51.61,10.07-31.48"/><path class="cls-3" d="M223.85,102c3.46-6.25,6.78-14.74,12.19-19.68,4.92-4.48,18.12-10,19.94.38,5.76-19.39,41.52-10.18,42.37,8.65"/><path class="cls-3" d="M483.56,415c3.81-1.85,8.14-3.15,11.64-4.57"/><path class="cls-3" d="M480,702c16.6-4.69,35.84-7.17,51.33-13.07"/><path class="cls-3" d="M517.67,681.86c3.86,6.6,5,15.56,5.5,23.28"/><path class="cls-3" d="M505.53,685c6.9,10,8.62,26.17,10.14,38.31"/><path class="cls-3" d="M673.55,167.79c16.4-.43,43.48.38,49.49-3.57,6.42-4.22,8.2-18.9,7.19-33.24s-3.73-21.94-9.68-24.56c-4.56-2-24.9-3.06-43.58-4"/><path class="cls-3" d="M619.6,146.3l60.49,1.26"/><path class="cls-3" d="M286.55,143.23c62.39.17,159.43-.42,191.18.16,11.39.21,57.1,1.15,102.2,2.08"/><path class="cls-3" d="M151.45,142s80.06.44,88,.69c4.41.14,10.48.25,17.84.33"/><path class="cls-3" d="M677.67,102.84c4.86,14.44,7.1,41.93-4.12,64.95"/><path class="cls-3" d="M139.64,101.5s-26,10.86-33.39,13.66c-8.3,3.16-57.78,23-57.78,23s37.74,8.52,46.8,10.81c13,3.29,41.56,11.67,41.56,11.67"/><path class="cls-3" d="M86.38,123.59c5.45,5.15,1.79,16.15-2.58,22.69"/><path class="cls-4" d="M491,380.36c-.91-9.78-4.84-20-13.84-25A19.17,19.17,0,0,0,466.5,353a15.21,15.21,0,0,0-.82-8.75c-3.09-7.59-11.5-11.44-19.32-11.28a36.81,36.81,0,0,0-24,10.24c-3,3-5.24,6.33-9.48,7.67s-9.06,1-13.49.53c-3-.28-4.46,2.48-3.7,5,1.68,5.66,8.22,8.15,13.18,10.22a80.4,80.4,0,0,0,21.07,5.54c7,.85,17.14,1.51,23.84-2.42a30.57,30.57,0,0,0,1.29,8.56,136,136,0,0,0,5.08,14c2,4.75,6.26,10.63,4.33,15.94-1.62,4.44,4.56,6.71,6.69,2.69a100,100,0,0,0,6.61-14.72A61.67,61.67,0,0,1,491.32,394,99.6,99.6,0,0,0,491,380.36Z"/><path class="cls-4" d="M475.92,444.67c4.29-4,7-9.65,8.89-15.49-3.36.16-6.68.23-9.78.28C475,429.46,475.43,435.83,475.92,444.67Z"/><path class="cls-3" d="M598.17,106.82c4.42,7.72,6.42,13.67,8.36,22.1"/><path class="cls-3" d="M620.37,108.14c4.52,8,6.78,16.34,8,25.08"/><path class="cls-4" d="M400.19,451.77q-.76-5.91-1.52-11.82c-.34-2.65-2.83-3.39-4.78-2.68a3,3,0,0,0-2.36.76c-3.45,3.37-3.33,7.51-1.72,11.44a12.52,12.52,0,0,0,.4,1.77,16,16,0,0,0,1.05,2.66v0a23.88,23.88,0,0,0,1.22,4.58c.93,2.52,3.87,2.58,5.62,1.15a3.77,3.77,0,0,0,2-2l.91-2A3.63,3.63,0,0,0,400.19,451.77Z"/><path class="cls-4" d="M458.52,445h0s0-.08,0-.12,0,0,0,.06a.62.62,0,0,1,0-.13,3.64,3.64,0,0,0-3.18-3.8,3.7,3.7,0,0,0-3.63,2.05,2.07,2.07,0,0,0-.4.78,9.29,9.29,0,0,0-.3,4.06,3.61,3.61,0,0,0,7.14-.15c0-.13,0-.26,0-.39a2.7,2.7,0,0,0,.17-.34A3.76,3.76,0,0,0,458.52,445Z"/></g></g></g></svg>