<svg xmlns="http://www.w3.org/2000/svg" viewBox="0 0 1100 820"><defs><style>.cls-1{fill:#F2F4F6;}.cls-2,.cls-5,.cls-7{fill:none;stroke-linecap:round;stroke-linejoin:round;stroke-width:7px;}.cls-2{stroke:#252631;}.cls-3{fill:#252631;}.cls-4{fill:#B6E0FE;}.cls-5{stroke:#B6E0FE;}.cls-6{fill:#FAB8D9;}.cls-7{stroke:#FAB8D9;}</style></defs><g id="CHARACTERS"><g id="Chat"><path id="BG" class="cls-1" d="M450.62,625.09c7.84-10.44,15.33-21.11,22.21-32.26,6.12-9.93,4.71-12.27,2.62-23.06-3.77-19.43-7.35-38.88-11-58.35a3.69,3.69,0,0,1-.64-.29,81.86,81.86,0,0,1-28.3-26.65c-9.26,0-16.37-3.4-15.39-14.51A20.65,20.65,0,0,1,424,459.75a93.38,93.38,0,0,1-2.73-12c-3.05-19.08-.78-50.74,17.1-62.16-1-13.48,10.8-25,23.86-28.47,19.29-5,40.88,4.2,59-5.82,3.35-1.85,7.74,2.66,5.14,5.79-2.79,3.34-5.62,6.74-8.56,10.07A610.49,610.49,0,0,1,621,372.34c-18.06,15.3-64.73,33.16-64.73,33.16s10.26,25.15,13.42,35.18c6.53,20.69,13.37,40.94,18.54,62.06,2.64,10.78,12.95,52,12.95,52,10.36,10.8,21,20.91,30.86,30.73,10.05,10,18,21.2,26.48,32.51q3-2.94,5.93-6.05c25.8-26.85,35.87-94.37,35.87-125.84s-8.11-64.46-17.08-83.65C673.67,382,662.14,361.72,647.58,345c-50.07-57.62-134.43-53.33-195.06-18.38-30.73,17.72-59.27,44.45-72.21,80.14-14.56,40.18-3.77,81.92,10.26,120.35C403.79,563.28,421.68,600.55,450.62,625.09Z"/><g id="Character"><path class="cls-2" d="M601.16,554.7s-10.31-41.18-12.95-52c-5.17-21.12-12-41.37-18.54-62.06-3.16-10-13.42-35.18-13.42-35.18s46.67-17.86,64.73-33.16a606.19,606.19,0,0,0-112.88-4.75c-22.33,1.19-45.47,7-58.34,26.32-7.89,11.83-6,23.42-3.05,37.11.88,4,1.79,8,2.7,12-13.94,5.05-28.17,13.91-29.32,27C418.36,489.63,442,485.24,458,480.21c1.85,8.22,3.62,16.48,5.21,24.82,4.11,21.61,8,43.19,12.23,64.74,2.09,10.79,3.5,13.13-2.62,23.06-11.83,19.19-25.49,37-39.62,54.54-8.32,10.33-36.11,42.34-37.77,49,0,0,281-.44,309-5.1-15.18-30.63-26.36-48.76-37.94-63.06-11.92-14.72-21.38-29.73-34.49-42.82-9.84-9.82-20.5-19.93-30.86-30.73-14.09,6.32-27.46,11.22-41.72,16-13.18,4.43-26.86,5.16-40.83,6.56-10.79,1.08-27.36,4.64-38.16,5"/><line class="cls-2" x1="503.23" y1="420.39" x2="508.92" y2="425.74"/><line class="cls-2" x1="522.8" y1="411.55" x2="528.49" y2="416.9"/><path class="cls-2" d="M487,592.73s12.52,16.76,20,23.36c9,8,20.95,19.81,34,18.27,20.52-2.44,28.91-34.23,22.13-48.86,3.27,12.8,29,52.09,42.68,19.51,2.65-6.3,2.61-28.89,2.61-28.89"/><path class="cls-2" d="M452.84,461.77c-4.86-.22-9.42-1.41-12.55,2.58"/><path class="cls-3" d="M458,480.21c-7,2.19-15.4,4.25-22.53,4.27a81.86,81.86,0,0,0,28.3,26.65,3.69,3.69,0,0,0,.64.29l-1.2-6.39C461.63,496.69,459.86,488.43,458,480.21Z"/><path class="cls-3" d="M521.28,351.3c-18.15,10-39.74.78-59,5.82-13.06,3.42-24.83,15-23.86,28.47-17.88,11.42-20.15,43.08-17.1,62.16a93.38,93.38,0,0,0,2.73,12c5.28-7.46,15.08-12.92,24.83-16.52,3.92,4.06,8,8,11.64,12.89,2.3,3.1,6.51.71,7-2.33,3.42-19.93-.71-43.34-11.87-60,10.41,3,22,1.62,32.07-2.68,16.09-6.87,27.77-20.9,38.7-34C529,354,524.63,349.45,521.28,351.3Z"/><path class="cls-2" d="M525.18,474.59c14.26-8,30.76-4.53,45.67,1.23"/><path class="cls-2" d="M578.68,469.09c-2.94-9.46-6-18.89-9-28.41-.12-.39-.26-.81-.4-1.25-2.66,2.61-4.89,5.74-7.72,8.22-8,7-18.25,10.62-27.89,14.49-7,2.8-15.26,2-9.6,10.82C536.47,492.39,564.29,484.46,578.68,469.09Z"/><path class="cls-2" d="M572.44,627.89c8.63,18.13,12.63,44.3,12,64.5"/><path class="cls-2" d="M626.94,669.89c15.31-.38,33.89,1.58,48,6"/><path class="cls-2" d="M659.93,662.39a62.32,62.32,0,0,1,4.5,21"/><path class="cls-2" d="M646.44,660.89c7.19,7.91,5,23.28,9,33"/><path class="cls-2" d="M595.44,677.39h1.5"/><path class="cls-2" d="M587.44,638.39h3"/><path class="cls-3" d="M576,462.81c-1.71-3.56-3.46-7.09-5.19-10.63,0-.08-.09-.14-.14-.22,3.8-3.15-.13-9.9-4.16-6.8-12,9.24-26.28,14-40.55,18.51-4.09,1.29-3.64,8.26,1.06,7.85a197.1,197.1,0,0,1,19.88-1c7.4.11,13.8,1.69,20.86,3.6,4.11,1.11,9.4.27,10.14-4.83C578.19,466.94,576.92,464.81,576,462.81Z"/></g><g id="Coworker2"><path class="cls-4" d="M272.41,443.69c33.73-7,55.51-23.48,78.25-51.39s26.78-72.94,19.95-107.36a234,234,0,0,0-12.73-41.07c-.39-.91-1.07-2.26-2-3.94a144.29,144.29,0,0,0-102.54-73.06,117,117,0,0,0-11.67-1.65h-.29A457.48,457.48,0,0,0,173.83,173c-20,3.73-44.94,10.07-63,19.41C79,208.8,63.35,242.49,59,276.86v0c-.12,1-.23,1.95-.33,2.92-.08.74-.15,1.47-.22,2.21,0,.31-.05.62-.08.94l0,.36c-.14,1.73-.27,3.46-.36,5.2,0,.66-.06,1.32-.08,2,0,.94-.08,1.88-.1,2.82s-.06,2.08-.07,3.13c0,1.64,0,3.3,0,5,0,.48,0,1,0,1.44,0,1.29.06,2.58.1,3.87,0,.14,0,.27,0,.4l0,.89c.06,1.67.14,3.34.23,5l.06.93v0c.08,1.41.17,2.84.27,4.27,0,.51.07,1,.11,1.54q.15,2.13.33,4.26c0,.15,0,.3,0,.45s0,.38,0,.57c.15,1.74.31,3.49.47,5.25.06.53.11,1.07.16,1.6.13,1.32.26,2.65.4,4,0,.55.11,1.1.17,1.66.17,1.65.35,3.31.53,5,0,.14,0,.27,0,.4l.24,2.07.09.77c0,.37.08.74.13,1.1s.07.64.11,1c.09.66.17,1.3.26,1.95s.12,1,.19,1.5c0,.14,0,.28,0,.41a.69.69,0,0,1,0,.13c.13.94.27,1.86.4,2.78l.09.63c.06.37.11.74.17,1.1.14.92.29,1.82.43,2.71.05.29.09.57.14.85.12.72.25,1.42.38,2.13l.18,1c.07.42.15.83.23,1.24l.3,1.55c0,.2.07.4.11.6.09.41.17.83.25,1.23.11.57.23,1.12.35,1.68.08.38.16.76.25,1.14s.2.94.31,1.41.27,1.16.4,1.74.23,1,.34,1.45c.21.85.42,1.7.64,2.55.14.55.28,1.09.43,1.63s.23.9.36,1.34.29,1.1.45,1.65c.2.72.41,1.45.62,2.17,0,.09,0,.18.08.26,8.37-11.42,16.72-23.49,20.38-29.25,14-22,28.8-45.38,38.69-69.15-18.86,17.75-29-5.47-22.09-23.32,6.14-15.79,28.92-34.22,39.82-13.11-2.05-27,22.3-55.06,50.2-55,21.85.07,34.38,8.94,49,24.85,9.33,10.14,17.39,21.66,25.08,33.52l.9-.32c23.13-22.53,38.94,22.24,25,37l-1.78.94,1.31,1.92c9.06,13.06,23.54,40.79,23.54,40.79s-29.08-8.4-51.51-13.45a14.16,14.16,0,0,1,3,4.74q1.21,2.9,2.41,5.8a13.72,13.72,0,0,1,2.1,5.09c.71,1.74,1.42,3.49,2.14,5.23,1.36,3.28-1.89,5.27-4.68,4.67a2.48,2.48,0,0,1-.19.26c-1.81,2.09-4.93,1.15-6.29-.81a21.09,21.09,0,0,0-7.53-6.69,37,37,0,0,1-.31,10.95,4,4,0,0,1-4.92,2.79,30.53,30.53,0,0,1-10.7-6.33l-.58,2.1s-13,42.37-13.94,63.21l-.69.82a98.16,98.16,0,0,0,11.75-3.16s-.09,19-1.84,31.82a66.8,66.8,0,0,1-1.89,8.94l.85-.15c10.49-1.68,23.21-3.6,36.41-5.78Z"/><path class="cls-5" d="M236,449.47c10.49-1.68,23.31-3.05,36.41-5.78,33.73-7,55.51-23.48,78.25-51.39s26.78-72.94,19.95-107.36a234,234,0,0,0-12.73-41.07c-.39-.91-1.07-2.26-2-3.94a144.29,144.29,0,0,0-102.54-73.06,100.09,100.09,0,0,0-12-1.65A457.48,457.48,0,0,0,173.83,173c-20,3.73-44.94,10.07-63,19.41C79,208.8,63.35,242.49,59,276.86,56.42,297.38,58.14,319,60.76,343s6.81,40.47,14.15,60c4.71,12.56,9.8,21.92,17,33.5C94.72,441,79.82,505,75.42,512.88c13.76-18.51,56-53.28,56-53.28a125.44,125.44,0,0,0,29.54.89c15.71-1.78,22.25-2.35,52-7.05"/><path class="cls-2" d="M68.11,382.49c8.88-9,14.12-16.11,21-27,14-22,28.8-45.38,38.69-69.15-18.86,17.75-29-5.47-22.09-23.32,6.14-15.79,28.92-34.22,39.82-13.11-2.05-27,22.3-55.06,50.2-55,21.85.07,34.38,8.94,49,24.85,19.71,21.42,33.81,49,50.51,73.06,9.06,13.06,23.54,40.79,23.54,40.79S271.1,319.85,250.76,317s-38.35-5-53.68-5.14"/><path class="cls-2" d="M120.76,263a51.06,51.06,0,0,1,8,4"/><path class="cls-2" d="M187.91,266c1.68-12.58,10.29-28.13,23.83-31,11.7-2.5,24.21,6,28.56,16.52,9.36,22.69-11,56.36-37.54,46.5C191.62,293.85,186.32,276.15,187.91,266Z"/><line class="cls-2" x1="218.76" y1="264.99" x2="217.76" y2="270.99"/><path class="cls-2" d="M270.76,253c23.13-22.53,38.94,22.24,25,37"/><line class="cls-2" x1="242.17" y1="258.17" x2="285.15" y2="265.99"/><line class="cls-2" x1="163.57" y1="243.87" x2="193.76" y2="249.36"/><path class="cls-2" d="M197.08,311.85c-9.45,7.64-21.6,24-12.83,30.15,9.28,6.48,27.91-10.88,31.56-18.71-.1,5.93-2.06,16.89,3.93,20.75,8.1,5.22,13.88-6.9,15-13.85,2.41,11.42,10.39,25.09,23.8,22.43,1.78-5.17,1.6-10.93-1.9-15.25,3,6,13.56,15,20,9.05,5.8-5.38-4.66-20.13-5.89-24.43"/><path class="cls-2" d="M176.46,413.58c5.55.05,15.3,3,20.57,2.79-.59,7-1.73,16.88-5.21,23.37-5-2.33-14.67-3-20-3.14,1.85-4.31,3.76-9.46,4-14.21.37-8.16.08-7.93.08-7.93S153.74,398,145.18,392.3c-8.22,14.25-11,38.37-12.25,53.61,12.58-1.71,25.26-7.39,37.72-9.72"/><path class="cls-2" d="M87.56,357.93c25.17,13.23,55.69,26.17,83.2,32.09,10.56,2.27,32.44,7.27,58.05,7.27"/><path class="cls-2" d="M241.76,348s-13,42.37-13.94,63.21"/><path class="cls-2" d="M199.12,419.06c12.73-5.19,27-5.76,39.75-10.2,0,0-.08,19-1.83,31.82a78.8,78.8,0,0,1-7.7,23.79l-34.82-25.3"/><path class="cls-2" d="M70.74,391.15c21.16,8.52,43,18.27,63.89,25.07"/><path class="cls-3" d="M277,341.05c-.72-1.74-1.43-3.49-2.14-5.23a13.72,13.72,0,0,0-2.1-5.09q-1.2-2.91-2.41-5.8c-1.63-3.84-3.64-6.33-7.85-7.16-11.47-2.27-23.74-2.53-35.38-3.64-6-.57-11.9-1.14-17.86-1.65-4.83-.42-9.19-.54-13.34,2.31-7.56,5.21-11.26,14.91-12.18,23.67-.25,2.43,2.79,4.76,5.07,3.86A61,61,0,0,0,213,325.18c.36,0,.7-.09,1.06-.11a12.08,12.08,0,0,1,3.8.22,3.27,3.27,0,0,0,.83.16,3.19,3.19,0,0,0-.88,1.19,18.68,18.68,0,0,0,.51,17,4,4,0,0,0,6.28.81c2.89-3.34,6.73-8.1,9-13A29.94,29.94,0,0,0,253,352.22a4,4,0,0,0,4.92-2.79,37,37,0,0,0,.31-10.95,21.09,21.09,0,0,1,7.53,6.69c1.36,2,4.48,2.9,6.29.81a2.48,2.48,0,0,0,.19-.26C275.07,346.32,278.32,344.33,277,341.05Z"/></g><g id="Coworker1"><path class="cls-6" d="M975,208a53.08,53.08,0,0,1-9.73,9.16C954,225,942.58,231.26,931.43,232l-5.55-3.3c.89.81,1.77,1.66,2.61,2.57a142.64,142.64,0,0,1,28.92,49.19c9.9-4.22,22.64-6.81,31.85-5.42,8.1,1.23,15.5,8.22,14.5,17.5-1,9-10.66,14-19,16.25-4.34,1.16-11.44,3.42-17.53,5.42,2.61,13.83,5,27.75,8.17,41.5S989,415.79,989,415.79s20.64,9.56,36.73,16.79a137.27,137.27,0,0,0,6.07-13.7c11-29.2,11.41-50.17,9.83-80.89-1-19.63-5.75-45.75-13.13-64-8.53-21.15-22.35-39.3-38.55-54.19A125.71,125.71,0,0,0,975,208Z"/><path class="cls-6" d="M858.06,483.94A165.81,165.81,0,0,0,873.31,460s-13.08-39-20.5-57.31c-5.54-13.67-20.08-49.81-20.08-49.81-18,7.46-52.77,29-52.77,29s11.23-52.46,18.58-73.9c9.25-27,20-52.64,42.27-71.57,17.7-15,48-24.46,70.85-16.25h0c-4.27-9.57-3.26-22.74-.26-35.26l-.19-.07A211.87,211.87,0,0,0,881.07,183c-21.86.17-70.16,12-103.2,37.28s-51.41,71.26-55.38,109.55c-4.09,39.4,7.15,81,28.35,114.07,8.77,13.7,19.52,27.26,45.74,45.45,12.72,8.83,29,14.63,45.84,18.08C849.56,496.45,856,486.74,858.06,483.94Z"/><line class="cls-2" x1="890.76" y1="309.99" x2="892.76" y2="319.99"/><line class="cls-2" x1="869.76" y1="317.99" x2="871.76" y2="327.99"/><path class="cls-2" d="M893.56,355.36c4.39-2.08,5.8,1.23,5.25,5.33-.55-4.64,4.33-10.12,9.78-8.52s7.82,23.12.59,30.32c-8.18,8.15-16.57,3-20.42-7.67S889.17,357.44,893.56,355.36Z"/><path class="cls-2" d="M877.76,376c16.87,2.64,40.5-11.65,43.82-26.66"/><path class="cls-2" d="M831.76,246c29.78,20,87,43.26,119,21"/><path class="cls-7" d="M911.19,184.83A212,212,0,0,0,881.07,183c-21.86.17-70.16,12-103.2,37.28s-51.41,71.26-55.38,109.55c-4.09,39.4,7.15,81,28.35,114.07,8.77,13.7,19.52,27.26,45.74,45.45s67.67,23.58,97.18,21.82c23.86-1.42,52.57-6.61,73.61-16.47l.32.25S987.1,513.69,997.3,522c11.51,9.37,24.94,18.79,38.56,24.6-6.15-15.66-16.44-31.46-24.72-46.23-4.11-7.34-9.66-19-13.77-28,14.86-15.34,27.37-34.89,34.39-53.52,11-29.2,11.41-50.17,9.83-80.89-1-19.63-5.75-45.75-13.13-64-8.53-21.15-22.35-39.3-38.55-54.19A125.71,125.71,0,0,0,975,208"/><path class="cls-2" d="M1025.79,432.38c-10.17-4-36.83-16.59-36.83-16.59s-10.36-46.36-13.56-60.13-5.56-27.67-8.17-41.5c6.09-2,13.19-4.26,17.53-5.42,8.34-2.22,18-7.22,19-16.25,1-9.28-6.4-16.27-14.5-17.5-9.21-1.39-22,1.2-31.85,5.42a142.64,142.64,0,0,0-28.92-49.19c-22.1-24-65.1-14-87.68,5.2-22.3,18.93-33,44.61-42.27,71.57-7.35,21.44-18.58,73.9-18.58,73.9s34.73-21.56,52.77-29c0,0,14.54,36.14,20.08,49.81C860.23,421,873.31,460,873.31,460a165.81,165.81,0,0,1-15.25,23.95c-5.51,7.38-17.35,23.13-17.35,23.13"/><path class="cls-3" d="M972.46,124.54c-21.31-4.34-41.55,6.41-52.83,28.06-7.82,15-20.22,48.73-11.19,69a3.49,3.49,0,0,0,6.2.36l13.78,8.21a3.54,3.54,0,0,0-.49,2,3.49,3.49,0,0,0,3.49,3.28h.22c13-.81,25.84-8.68,35.6-15.45,11.92-8.27,26.8-29.92,30-50.49C999.72,153.94,990.38,128.19,972.46,124.54Z"/><path class="cls-2" d="M944.06,475.16c22-12.73,39.17-38.86,49-59.91"/><path class="cls-2" d="M869.76,463c16.08,10.27,38,20.61,57.8,18.14"/><path class="cls-2" d="M938.23,470c-10.16-2.59-14.75,11.51-6,15,11,4.44,17.57-12.47,5-15Z"/><path class="cls-2" d="M984,290.48a12.08,12.08,0,0,0-11.48,5"/><path class="cls-3" d="M949.85,262.61c-8.08-20.71-26-37.05-47.84-42.08-22.57-5.19-46.88,2.3-63.12,18.65-3.06.43-4.92,5.29-1.52,7.55a164.85,164.85,0,0,0,58,24.38,154.78,154.78,0,0,0,30,3.38c8.52.07,17.47-1.38,23.44-8A4,4,0,0,0,949.85,262.61Z"/></g></g></g></svg>