<?xml version="1.0" encoding="UTF-8" standalone="no"?>
<svg
   viewBox="0 0 850 820"
   version="1.1"
   id="svg80"
   sodipodi:docname="upload.svg"
   inkscape:version="1.1 (c4e8f9ed74, 2021-05-24)"
   xmlns:inkscape="http://www.inkscape.org/namespaces/inkscape"
   xmlns:sodipodi="http://sodipodi.sourceforge.net/DTD/sodipodi-0.dtd"
   xmlns="http://www.w3.org/2000/svg"
   xmlns:svg="http://www.w3.org/2000/svg">
  <sodipodi:namedview
     id="namedview82"
     pagecolor="#ffffff"
     bordercolor="#666666"
     borderopacity="1.0"
     inkscape:pageshadow="2"
     inkscape:pageopacity="0.0"
     inkscape:pagecheckerboard="0"
     showgrid="false"
     inkscape:zoom="0.94634146"
     inkscape:cx="425.32216"
     inkscape:cy="410"
     inkscape:window-width="1920"
     inkscape:window-height="1011"
     inkscape:window-x="0"
     inkscape:window-y="0"
     inkscape:window-maximized="1"
     inkscape:current-layer="svg80" />
  <defs
     id="defs4">
    <style
       id="style2">.cls-1{fill:#F2F4F6;}.cls-2{fill:none;stroke:#252631;stroke-linecap:round;stroke-linejoin:round;stroke-width:7px;}.cls-3{fill:#252631;}</style>
  </defs>
  <g
     id="CHARACTERS">
    <g
       id="Book">
      <path
         id="BG"
         class="cls-1"
         d="M93.28,440.29,177.67,416a519.34,519.34,0,0,0-50.59,113c-2.71,8.73,7.3,15.17,14.69,11.3l65.93-34.52a176,176,0,0,0-23,75.84c9.23-4.75,18.21-9.57,26.67-14.08,16.14-8.63,33.81-19.65,52.14-24.52a453.74,453.74,0,0,1,50.89-11.53c6.12-1,12.48-1.75,18.92-2.4h0c-5.29-8,.29-25.54,8.71-23-4.66-4.73-4.33-14.34,3.15-14.82l.27,0-.4-1s-8.31-18.7-13.34-25.95c.8-.41,1.61-.8,2.41-1.19l-.8-1.72L328,451.74c-9,4.23-16.47,6-28.67,4s-24.85-7.86-29.27-15.49c-5.1,4.6-14.84,5.29-21.07-.54-6.7-6.28-10.6-33.38,6.31-38.67l.07.12c1.17-13.23,11-22.31,25.86-22.31l.08.3c5.72-5.5,16.09-8,26.78-8l.75-.18c-2.73-4.38-6.9-8.54-15.18-11.25-9.88-3.23-22.73-5.52-33.27-4.33-8.47.95-23.87,5.2-31.72,1.37-8.28-4-5.89-14.37,2.71-19,11-5.94,23.83-6.61,35.85-7,13.75-.48,25.89,2.61,39,6.14,48.46,13,74.21,64.48,98.33,102.83l.24.69c8.84-.89,8.51,3.92,12.49,13.22,2.53,5.92,7.41,23.75,7.41,23.75,13.54.69,24.39,7,26.76,25.48l.62,3.58a102.33,102.33,0,0,1,11.46-2c15.34-13,27.92-26.31,41.2-41.22a504.59,504.59,0,0,0-34.11-48.29q-10.45-13.15-21.81-25.56-5.52-6-11.25-11.88c-3.61-3.68-7.78-7.11-11-11.11-2.42-3,.39-4,3-6.57,4-3.9,8.12-7.71,12.28-11.44q13.64-12.22,28.28-23.25c3.6-2.71,5.87-6.66,4.59-11.29-1.09-4-5.32-7.74-9.64-7.35A512.25,512.25,0,0,1,394.12,308a421.83,421.83,0,0,1,59.08-76.34c7.84-8-2.21-21.63-12.12-15.71q-57.51,34.4-117.69,64a670.3,670.3,0,0,1-28.68-137.44,13,13,0,0,0-1.46-4.81c-.45-6.58-6.05-11.17-12.65-9.6-11.05,2.62-15.15,13.34-16.09,23.55-1.12,12.21-.14,24.72-.87,37A414.68,414.68,0,0,1,255,251.72a1169.33,1169.33,0,0,0-104.83-61.36c-8.12-4.2-19.95,5-13.68,13.69,22.13,30.84,44.43,61.83,70.08,89.86a529,529,0,0,0-95-11.23c-9.47-.26-14.22,14.37-5.05,18.63a622.31,622.31,0,0,1,78.46,43.58c-10.53,15.86-26.95,26.41-43.35,36.18-20.56,12.24-42.29,24-58,42.5C77.4,430.8,83.07,443.22,93.28,440.29Z" />
      <g
         id="Character">
        <path
           class="cls-2"
           d="M27.67,691.61c40.44,2.71,83.1-4.74,123.81-3.22,71,2.65,141.87-3.12,213-4.3,136-2.24,273.66-6.42,409.56-1.35,19.11.71,48.33.9,48.33.9"
           id="path7" />
        <path
           class="cls-2"
           d="M330.59,683.82C342,653.54,343.85,633.59,348,619.26c3.82,16,9.67,48.79,20.47,64.56"
           id="path9" />
        <path
           class="cls-2"
           d="M809.51,682.29c-1.69-16.79-5.79-29.45-8.11-39.6-4.4-19.28-10.62-33.92-23.81-54.12-29.37,1.28-59.19.86-89.09,3.53-26.45,2.36-54,4.46-80.53,1.8-14.23-1.42-27.83-6-41.56-9.1-18.68-4.16-31.36-8.87-46.9-20.69-15.29-11.64-25.89-29.25-42.82-38.79-23.73-13.38-60.16-10.57-81.68,6-12.18,9.37-21.45,21.28-29.23,34.54-7.63,13-13.32,27.25-18,43.41-7.72-32.19-18.72-50-38.62-61.35-34.23-19.53-68.49,4-97.76,19.64-25.45,13.59-55.67,29.94-83,39-15.83,5.25-43.91,12-61,9.13a417.18,417.18,0,0,0-28,76.46"
           id="path11" />
        <path
           class="cls-2"
           d="M263.36,543.05a451.18,451.18,0,0,1,51-11.57,371.61,371.61,0,0,1,55.46-4.32c7.54,0,20-.46,26.59,2.71"
           id="path13" />
        <path
           class="cls-2"
           d="M407.5,523.9c10.79-5.07,28.83-12.82,40.33-16.35,14.57-4.47,31.37-4.08,46.4-5.56,24.42-2.39,49.8-4.14,74,0,23.76,4.08,50.68,17.11,70.69,31.1,23.71,16.59,54.73,36.28,74.17,43s37.45,12.14,64.52,12.43"
           id="path15" />
        <path
           class="cls-2"
           d="M331.51,613.75c-5.84-8.48-20.07-18.64-29.32-22.11-11.87-4.44-25.86-4-38.26-1.38-32.76,7-55.33,24.28-86.24,36.79-15.67,6.34-45.25,12.81-61,16"
           id="path17" />
        <path
           class="cls-2"
           d="M68.69,676.38c63.33-3.67,99.72-17.65,121-20.26,30.43-3.72,62.51-4.75,92.67-1.48,10.3,1.12,29.44,6.8,38.66,11"
           id="path19" />
        <path
           class="cls-2"
           d="M323.88,637.54c-13.5-7.19-41.79-16-69.6-6.68"
           id="path21" />
        <path
           class="cls-2"
           d="M372,608.77c13.71-17.38,22.14-31.09,42.28-41.85,17.18-9.18,31.1-10.07,49.24-1.54,12.43,5.84,32.84,18.35,44.82,25.33"
           id="path23" />
        <path
           class="cls-2"
           d="M380.69,627.28c14.84-6.36,41-17.38,57.53-19,13.45-1.33,26.77-.32,40.09.92,28.05,2.61,56.15,12.4,83.63,18.17a138.12,138.12,0,0,0,27.39,2.8"
           id="path25" />
        <path
           class="cls-2"
           d="M614.73,594.48c7.65,22.57,13,59.81,15.3,85.85"
           id="path27" />
        <path
           class="cls-2"
           d="M387.43,657c22.26-2,36.29-2.72,59.59-4,17.5-.94,71.67,3,71.67,3"
           id="path29" />
        <path
           class="cls-2"
           d="M563.31,657h7.22"
           id="path31" />
        <path
           class="cls-2"
           d="M773.3,619.53c-8.49-.6-59.94.5-69.34,2.75"
           id="path33" />
        <path
           class="cls-2"
           d="M784.69,636.18C763.39,638,664.24,640,644,640.63"
           id="path35" />
        <path
           class="cls-2"
           d="M773,657c-39.07,0-77.66,0-119.33,2"
           id="path37" />
        <path
           class="cls-2"
           d="M451.46,502.82c-5.38-42-54.39-21.08-79.41-14.64-8.73,2.25-19.39,2.56-26.88,3.05s-7.81,10.09-3.15,14.82c-8.42-2.52-14,15-8.71,23"
           id="path39" />
        <path
           class="cls-2"
           d="M345,490.19s-8.31-18.7-13.34-25.95c14.34-7.19,27.36-11.67,42.2-16.92,8.34-2.94,19-4.83,28-6.51,11.87-2.24,11,2.55,15.41,12.78,2.53,5.92,7.41,23.75,7.41,23.75"
           id="path41" />
        <path
           class="cls-2"
           d="M404.56,439.68c-24.12-38.35-49.87-89.81-98.33-102.83-13.14-3.53-25.28-6.62-39-6.14-12,.42-24.81,1.09-35.85,7-8.6,4.64-11,15-2.71,19,7.85,3.83,23.25-.42,31.72-1.37,10.54-1.19,23.39,1.1,33.27,4.33,10.42,3.41,14.33,9.1,17.06,14.67"
           id="path43" />
        <path
           class="cls-2"
           d="M334.3,389.45c-14.61-.4-32.6,2.54-45.18,6-7.3,2-16.08,3.94-19.42,11.89s2.52,13.19,11.3,13.34c10.33.19,20.67-2,34.69-1.67-2,5-2.35,17.85,5,20.63"
           id="path45" />
        <path
           class="cls-2"
           d="M308.06,371.14c-19.37,0-37.71,8.26-29.21,27.54"
           id="path47" />
        <path
           class="cls-2"
           d="M281.2,378.86c-18.51,0-29.29,14.14-25.08,32.85,4.57,20.36,33,31,37.51,12.64"
           id="path49" />
        <path
           class="cls-2"
           d="M255.27,401.05c-16.91,5.29-13,32.39-6.31,38.67,9,8.44,25.41,3.22,24.4-7.76"
           id="path51" />
        <path
           class="cls-2"
           d="M270,440.26c4.42,7.63,17.07,13.55,29.27,15.49s19.71.22,28.67-4l5.34,9.59"
           id="path53" />
        <path
           class="cls-2"
           d="M463.54,504.39c17.36-14.74,31.17-29.81,46.48-47.18,12.22-13.86,24.51-28.5,35.39-49.83,8.28,5.21,17.47,8.19,44.16,9.51s50.93.06,59.15-1.29c9.71-1.6,10.93,3.4,13.28,13.11,2.44,10.15,5.88,19.92,11.32,28,13.94,20.66,22.5,31.55,39.44,56.28s30.76,46.26,45.34,72.8"
           id="path55" />
        <path
           class="cls-2"
           d="M535.53,440.08c3,10,9.54,17.71,21.9,10.89,9.89-5.45,18.49-11.26,25.79-22.26,7.87,17.43,15.44,25.67,28.82,34,13.85,8.6,34.55-1.35,44.94-12.76"
           id="path57" />
        <path
           class="cls-2"
           d="M548.86,406.31l-2.84-63s-32.87,4.27-46.65,6.91c3.5-17.5,9-29.47,14.65-42.42,6.3-14.4,12.38-27.59,23.17-39.28,19.56-21.19,60.92-40.21,84.31-13.28,13.67,15.74,11.22,38.64,12.3,58.05,13.66-3,34.61-16.08,43.38,3.5,9.31,20.8-22.32,20.83-35.29,21.11,2.38,18.8,9.94,63.9,11.59,75.62"
           id="path59" />
        <path
           class="cls-2"
           d="M582.23,356.71c13.35,0,21.65-6.76,21.65-13.53"
           id="path61" />
        <line
           class="cls-2"
           x1="573.21"
           y1="305.3"
           x2="575.02"
           y2="313.32"
           id="line63" />
        <line
           class="cls-2"
           x1="560.36"
           y1="308.32"
           x2="562.16"
           y2="316.34"
           id="line65" />
        <path
           class="cls-3"
           d="M650,308.28q-.36-3.73-.88-7.46c-1-7-2-16.61-5.23-24.55-3-11.48-9.55-29.93-20.08-35.89-4.13-3.12-9-4.71-14.42-3.53,0-.09-.07-.19-.12-.28-1.5-3.3-5.49-5.38-8.66-6.7-7.73-3.24-16.59-2.5-24.41,0C557,236.05,545,253.76,526.5,261.15c-2.68,1.07-2.54,5.29.72,5.31l26.52.18c8,.06,16.15.17,24.11-1.26a42.15,42.15,0,0,0,19.92-9c1,8.51,5.47,18.53,12.86,24.28,5.74,4.46,10.87,8.47,12.9,15.78,2.27,8.21,3.28,16.91,4.83,25.28.49,2.68,5.59,2.48,6.21,0,.74-2.93,1.45-6,2.11-9.14C640.78,311.37,645.35,309.64,650,308.28Z"
           id="path67" />
        <path
           class="cls-3"
           d="M641.89,337.91c.57,4.43,1.42,10.35,2.41,16.93,1.44,1.09,4,.82,4.31-1.3q1.23-7.92,1.77-15.88C647.18,337.81,644.23,337.86,641.89,337.91Z"
           id="path69" />
        <path
           class="cls-2"
           d="M580.36,444.38c-5.18,9.43,0,19.06,2,28.67,2.39,11.19-5.81,18.51-6.68,28.66"
           id="path71" />
        <path
           class="cls-2"
           d="M589.52,464.71a1.23,1.23,0,0,0,1,1"
           id="path73" />
        <path
           class="cls-2"
           d="M588.52,496.71c.7.2,1.28.35,2,.5"
           id="path75" />
      </g>
    </g>
  </g>
</svg>
